<?xml version="1.0" standalone="no"?>
<!DOCTYPE svg PUBLIC "-//W3C//DTD SVG 20010904//EN"
 "http://www.w3.org/TR/2001/REC-SVG-20010904/DTD/svg10.dtd">
<svg version="1.0" xmlns="http://www.w3.org/2000/svg"
 width="1024.000000pt" height="1024.000000pt" viewBox="0 0 1024.000000 1024.000000"
 preserveAspectRatio="xMidYMid meet">
<metadata>
Created by potrace 1.11, written by Peter Selinger 2001-2013
</metadata>
<g transform="translate(0.000000,1024.000000) scale(0.100000,-0.100000)"
fill="#000000" stroke="none">
<path d="M1330 8066 c-63 -20 -96 -44 -201 -143 -210 -200 -287 -279 -302
-313 -52 -117 -50 -211 7 -320 10 -19 209 -226 442 -460 1051 -1054 1694
-1706 1691 -1713 -1 -5 -475 -483 -1052 -1063 -831 -835 -1057 -1067 -1083
-1114 -60 -106 -54 -242 13 -340 14 -19 90 -98 171 -175 200 -192 212 -202
269 -232 43 -23 63 -27 140 -27 79 -1 97 2 145 27 46 23 281 254 1406 1380
1469 1470 1396 1392 1407 1516 5 59 -10 138 -38 191 -10 19 -628 645 -1374
1391 -1095 1095 -1366 1360 -1406 1379 -56 27 -176 35 -235 16z"/>
<path d="M4984 3159 c-114 -14 -223 -97 -262 -200 -19 -50 -21 -76 -21 -329
-1 -248 1 -281 19 -335 36 -108 133 -189 250 -209 48 -8 642 -11 2131 -9 1135
1 2078 3 2094 6 122 17 214 89 261 205 22 54 23 68 23 327 0 170 -4 286 -11
312 -16 56 -76 142 -124 175 -21 15 -64 35 -94 45 -51 16 -204 17 -2135 17
-1144 1 -2103 -2 -2131 -5z"/>
</g>
</svg>
